# xmcd
#
# Track frame offsets: 
#        183
#        17215
#        29880
#        45250
#        61655
#        78743
#        95115
#        109518
#        123615
#        137633
#
# Disc length: 2068 seconds
#
# Revision: 4
# Processed by: cddbd v1.5.1PL0 Copyright (c) Steve Scherf et al.
# Submitted via: ExactAudioCopy v0.95a5
#
DISCID=8608120a
DTITLE=Kathy Mattea - Walk The Way The Wind Blows
DYEAR=1986
DGENRE=Country
TTITLE0=Walk The Way The Wind Blows
TTITLE1=Train Of Memories
TTITLE2=Reason To Live
TTITLE3=Evenin'
TTITLE4=Leaving West Virginia
TTITLE5=Love At The Five and Dime
TTITLE6=You Plant Your Fields
TTITLE7=Back Up Grinnin' Again
TTITLE8=You're The Power
TTITLE9=Song For The Life
EXTD=(c)1986 Polygram /Mercury\nupc 0422834040526
EXTT0=
EXTT1=
EXTT2=
EXTT3=
EXTT4=
EXTT5=
EXTT6=
EXTT7=
EXTT8=
EXTT9=
PLAYORDER=
